<svg xmlns="http://www.w3.org/2000/svg" viewBox="0 0 841.9 595.3">
<svg xmlns="http://www.w3.org/2000/svg" xmlns:xlink="http://www.w3.org/1999/xlink" width="1000" zoomAndPan="magnify" viewBox="0 0 750 749.999995" height="1000" preserveAspectRatio="xMidYMid meet" version="1.0"><defs><clipPath id="c2d3714a64"><path d="M 81.972656 95.707031 L 668.921875 95.707031 L 668.921875 654.292969 L 81.972656 654.292969 Z M 81.972656 95.707031 " clip-rule="nonzero"/></clipPath><clipPath id="9c4d985df8"><path d="M 375 95.707031 L 444.175781 309.066406 L 668.027344 309.066406 L 486.925781 440.933594 L 556.101562 654.292969 L 375 522.429688 L 193.898438 654.292969 L 263.074219 440.933594 L 81.972656 309.066406 L 305.824219 309.066406 Z M 375 95.707031 " clip-rule="nonzero"/></clipPath><clipPath id="771e161477"><path d="M 262.015625 262.015625 L 487.765625 262.015625 L 487.765625 487.765625 L 262.015625 487.765625 Z M 262.015625 262.015625 " clip-rule="nonzero"/></clipPath></defs><g clip-path="url(#c2d3714a64)"><g clip-path="url(#9c4d985df8)"><path fill="#a80532" d="M 81.972656 95.707031 L 668.921875 95.707031 L 668.921875 654.292969 L 81.972656 654.292969 Z M 81.972656 95.707031 " fill-opacity="1" fill-rule="nonzero"/></g></g><g clip-path="url(#771e161477)"><path fill="#ffffff" d="M 465.367188 352.398438 L 397.496094 352.398438 L 397.496094 284.617188 C 397.496094 272.148438 387.371094 262.019531 374.898438 262.019531 C 362.429688 262.019531 352.304688 272.148438 352.304688 284.617188 L 352.304688 352.402344 L 284.617188 352.398438 C 272.144531 352.398438 262.019531 362.519531 262.019531 374.992188 C 262.019531 387.464844 272.144531 397.585938 284.617188 397.585938 L 352.308594 397.585938 L 352.308594 465.371094 C 352.308594 477.84375 362.433594 487.96875 374.90625 487.96875 C 387.375 487.96875 397.5 477.84375 397.5 465.371094 L 397.5 397.585938 L 465.367188 397.585938 C 477.839844 397.585938 487.964844 387.464844 487.964844 374.992188 C 487.964844 362.519531 477.839844 352.398438 465.367188 352.398438 Z M 465.367188 352.398438 " fill-opacity="1" fill-rule="evenodd"/></g>
</svg>
</svg>